<svg width="150" height="45" viewBox="0 0 150 45" fill="none" xmlns="http://www.w3.org/2000/svg">
<g id="Capa_1-2">
<path id="Vector" d="M142.926 11.0479C142.485 10.5626 141.857 10.2688 141.202 10.2414L134.068 9.94321C134.036 9.94233 133.998 9.94145 133.966 9.94145C132.636 9.94145 131.529 11.0232 131.498 12.352L131.426 15.4006C130.94 15.3414 130.465 15.3123 130 15.3123C127.415 15.3123 125.167 16.2194 123.498 17.9356C123.288 18.1509 123.092 18.3776 122.905 18.615C122.89 18.6035 122.875 18.592 122.86 18.5806C122.864 18.5753 122.868 18.57 122.871 18.5647C122.917 18.4906 122.958 18.4129 122.995 18.3344C123.294 17.6982 123.475 17.0479 123.534 16.4003C123.66 15.0097 123.207 13.672 122.26 12.6353C121.184 11.4582 119.534 10.755 117.846 10.755C115.934 10.755 114.288 11.6126 113.281 13.0906L107.7 9.86645C107.325 9.64939 106.898 9.53468 106.465 9.53468C105.64 9.53468 104.875 9.94321 104.415 10.627L104.037 11.19C103.768 10.1179 102.795 9.31939 101.643 9.31939C101.602 9.31939 101.553 9.32027 101.514 9.32292L93.7278 9.73057C92.3822 9.80027 91.3331 10.9526 91.3896 12.2982L91.529 15.6256C89.7881 15.1412 87.7728 14.872 85.7831 14.872C84.1587 14.872 81.8637 15.0512 80.1502 15.9035C79.544 16.2053 79.0075 16.5494 78.5399 16.9359C78.276 16.59 77.9196 16.3112 77.4908 16.14C75.4702 15.3344 72.8152 14.872 70.2052 14.872C68.5808 14.872 66.2858 15.0512 64.5722 15.9035C63.2761 16.5485 62.2975 17.3885 61.6384 18.4173C59.7334 16.2414 56.9372 14.8659 53.8252 14.8659C50.1934 14.8659 46.9913 16.7409 45.1349 19.5732C43.6252 17.5394 41.1811 16.3191 38.3584 16.3191C37.8864 16.3191 37.4161 16.3544 36.9528 16.4241L36.8866 11.8156C36.8663 10.4753 35.8014 9.40762 34.4611 9.38468L28.1822 9.27704C28.169 9.27704 28.1531 9.27704 28.1399 9.27704C27.4702 9.27704 26.8208 9.55409 26.3575 10.0385C26.2808 10.1188 26.2128 10.2044 26.1484 10.2935C25.664 10.0844 25.1637 9.90086 24.6484 9.74556L24.2752 2.68762C24.1958 1.18145 22.9525 0.00262451 21.4446 0.00262451C21.4402 0.00262451 21.434 0.00262451 21.4296 0.00262451C21.3714 0.00262451 21.3122 0.00527157 21.2531 0.00880098C20.3293 0.0696833 19.3984 0.174683 18.4852 0.322036C17.8049 0.431448 17.2005 0.776448 16.7628 1.30057C16.4019 1.13557 16.0031 1.04468 15.5893 1.04468H15.5769C15.3078 1.04557 15.0414 1.08527 14.7899 1.16027C13.8969 1.42321 13.0075 1.73027 12.1464 2.07351C11.4872 2.33645 10.9614 2.82439 10.6525 3.45704C10.4452 3.40939 10.2308 3.3838 10.0119 3.3838H9.99959C9.52312 3.38557 9.05194 3.5091 8.63459 3.74115C7.82547 4.19115 7.02518 4.68615 6.25841 5.21204C5.69106 5.60115 5.29312 6.16939 5.12106 6.82851C4.439 6.83821 3.78518 7.09321 3.27694 7.54586C2.58871 8.15998 1.919 8.81468 1.28812 9.49409C0.76665 10.0553 0.499297 10.785 0.534591 11.5509C0.569885 12.3167 0.904297 13.02 1.47518 13.5317L6.9643 18.4482C6.61312 19.7276 6.43312 21.0679 6.43312 22.4453C6.43312 26.5623 7.919 30.0017 10.7293 32.3903C13.1884 34.4806 16.5811 35.632 20.2808 35.632C22.5784 35.632 24.9484 35.1847 27.1587 34.3367C27.6114 34.8679 28.2855 35.2023 29.0372 35.2023C29.0443 35.2023 34.7787 35.1485 34.7787 35.1485C35.3416 35.1432 35.8922 34.9403 36.3255 34.5847C36.7199 34.8635 37.1999 35.0285 37.7196 35.0356C37.7196 35.0356 44.0584 35.1167 44.0681 35.1167C45.3511 35.1167 46.4319 34.1082 46.529 32.8217C46.5334 32.7626 46.5378 32.7062 46.5422 32.6479C48.4181 34.4956 50.9911 35.6382 53.8261 35.6382C56.3928 35.6382 58.8361 34.6888 60.7155 33.022C61.0049 33.6485 61.5511 34.147 62.2463 34.3562L62.4758 34.425C65.1352 35.2367 67.4593 35.632 69.5796 35.632C71.7705 35.632 73.7602 35.1997 75.4931 34.3464C75.914 34.1391 76.3066 33.8885 76.6666 33.6009C76.9658 33.9485 77.3611 34.2176 77.8234 34.3562L78.0528 34.425C80.7122 35.2367 83.0363 35.632 85.1566 35.632C87.3475 35.632 89.3372 35.1997 91.0702 34.3464C91.5202 34.125 91.9384 33.8523 92.3196 33.5391C92.5702 34.6438 93.5513 35.4556 94.7249 35.4556C94.7637 35.4556 94.8105 35.4547 94.8484 35.452L101.878 35.0991C102.948 35.0462 103.827 34.3226 104.119 33.3476L104.958 34.4029C105.43 34.995 106.134 35.3347 106.891 35.3347C107.49 35.3347 108.069 35.1167 108.519 34.7214L112.715 31.0394L112.875 32.9444C112.985 34.2309 114.042 35.2014 115.334 35.2014C115.384 35.2014 115.446 35.1997 115.497 35.1962L121.202 34.8194C122.478 34.7347 123.469 33.7067 123.506 32.4256L123.51 32.287C125.076 33.8885 127.18 34.7638 129.516 34.7638C130.312 34.7638 131.135 34.6641 131.98 34.4673C132.374 34.7744 132.864 34.965 133.398 34.9844L139.914 35.2279C139.943 35.2288 139.977 35.2297 140.005 35.2297C141.316 35.2297 142.398 34.2044 142.47 32.8959L143.563 12.8444C143.598 12.1897 143.366 11.5359 142.925 11.0506L142.926 11.0479Z" fill="#62A043"/>
<path id="Vector_2" d="M75.5092 25.6438C74.0065 24.4103 71.8589 24.5682 70.0712 23.9435C69.75 23.8668 69.5206 23.7309 69.3944 23.5774C69.1527 23.2835 69.2974 22.9244 69.9574 22.7815C71.693 22.6844 73.7691 23.2306 75.4606 23.6744C75.5497 23.6974 75.6389 23.6418 75.6574 23.5518L76.6589 18.8188L76.733 18.4668C76.7489 18.39 76.7083 18.3124 76.635 18.2832C73.2036 16.9147 67.8909 16.8291 65.5994 17.9691C63.308 19.1091 62.8403 20.7397 62.9436 22.5679C62.9992 23.5421 63.3644 24.4835 64.0906 25.1903C65.2924 26.2826 67.1021 26.2897 68.5889 26.5782C69.4306 26.6382 69.7659 27.1747 69.5197 27.5488C69.3962 27.7368 69.1297 27.8841 68.7027 27.9097C66.9424 28.0456 65.108 27.4518 63.4589 26.8729C63.36 26.8385 63.2559 26.9056 63.2462 27.0097L62.7927 31.9721C62.7856 32.0479 62.8333 32.1185 62.9065 32.1406C63.0089 32.1715 63.1377 32.2094 63.1465 32.2129C66.7465 33.3124 70.965 33.9971 74.4715 32.2712C75.7315 31.6509 76.6183 30.4324 76.7594 29.0356C76.7665 28.9668 76.7718 28.8979 76.7762 28.8291C76.8468 27.6124 76.4515 26.3709 75.5074 25.6447L75.5092 25.6438Z" fill="white"/>
<path id="Vector_3" d="M34.7523 24.2594C34.7479 24.0423 34.8167 23.8297 34.9464 23.655C35.7202 22.8115 36.9361 23.655 37.2529 24.5047C37.6385 25.7691 37.7179 26.9779 37.702 28.2009C37.6852 29.4873 37.5643 30.7888 37.5811 32.1856C37.5829 32.3118 37.5855 32.4388 37.589 32.5668C37.5917 32.6523 37.6623 32.722 37.7479 32.7229L44.0646 32.8041C44.1538 32.805 44.2199 32.7318 44.227 32.6426C44.3982 30.3821 44.5005 28.5406 44.5279 26.5915C44.5446 25.3844 44.467 24.142 44.1705 22.7479C42.9899 18.7023 38.1546 17.5721 34.6896 19.6315L34.5785 11.8482C34.5776 11.7618 34.507 11.6912 34.4205 11.6894L28.1417 11.5818C28.049 11.58 27.974 11.6568 27.9785 11.7494L28.8749 32.7353C28.8785 32.8218 28.9508 32.8897 29.0373 32.8888L34.7549 32.835C34.844 32.835 34.9164 32.7609 34.9146 32.6709L34.7523 24.2576V24.2594Z" fill="white"/>
<path id="Vector_4" d="M101.763 32.7909C101.849 32.7864 101.917 32.7159 101.916 32.6294L101.89 27.3617L101.888 26.8332L106.765 32.9629C106.823 33.0344 106.929 33.0441 106.998 32.9841L112.848 27.8497L113.003 27.7147C113.073 27.6529 113.076 27.5435 113.008 27.4782L107.555 22.237L107.298 21.99L112.818 16.0147L112.998 15.8197C113.067 15.7438 113.049 15.6229 112.96 15.5709L106.546 11.865C106.473 11.8226 106.379 11.8447 106.331 11.9144L101.831 18.6176L101.804 11.7882C101.804 11.6964 101.726 11.6232 101.635 11.6285L93.8478 12.0362C93.7596 12.0406 93.6917 12.1156 93.6952 12.2038L93.7102 12.5691L94.5643 32.9903C94.5678 33.0794 94.6437 33.1491 94.7328 33.1438L101.763 32.7909Z" fill="white"/>
<path id="Vector_5" d="M114.27 19.71C114.17 19.7003 114.086 19.7841 114.094 19.8838L114.124 20.2218L115.174 32.7441C115.182 32.8315 115.258 32.8968 115.346 32.8906L121.05 32.5138C121.133 32.5085 121.197 32.4406 121.2 32.3576L121.522 20.9232L121.533 20.55C121.535 20.4653 121.472 20.3929 121.387 20.385L114.269 19.7091L114.27 19.71Z" fill="white"/>
<path id="Vector_6" d="M133.33 32.5112C133.327 32.5994 133.397 32.6726 133.484 32.6762L140 32.9197C140.088 32.9232 140.162 32.8553 140.167 32.7679L141.26 12.7173C141.266 12.6282 141.196 12.5515 141.107 12.5479L133.974 12.2497C133.884 12.2462 133.809 12.3168 133.806 12.4068L133.668 18.2779C126.359 15.8285 122.948 20.6735 123.079 25.3518C123.207 29.94 126.743 34.3676 133.354 31.5944L133.33 32.5121V32.5112ZM133.622 23.7035L133.497 27.57C131.34 27.8109 129.965 26.4847 129.795 25.2115C129.634 24.0053 130.497 22.8362 132.927 23.1212L133.639 23.1776L133.623 23.7026L133.622 23.7035Z" fill="white"/>
<path id="Vector_7" d="M61.9024 25.2494C61.9024 20.7882 58.2865 17.1723 53.8254 17.1723C49.3642 17.1723 45.7483 20.7882 45.7483 25.2494C45.7483 29.7105 49.3642 33.3264 53.8254 33.3264C56.5915 33.3264 59.0321 31.935 60.4871 29.8138C60.5409 29.7352 60.5145 29.6258 60.4315 29.5799L56.0021 27.1191C55.9377 27.0829 55.8583 27.0979 55.808 27.1517C55.3298 27.6564 54.6574 27.9723 53.9109 27.9723C52.8098 27.9723 51.8674 27.2876 51.4765 26.317L61.6889 26.3073C61.7701 26.3073 61.8398 26.2464 61.8486 26.1644C61.883 25.8635 61.9024 25.5582 61.9024 25.2485V25.2494ZM51.5251 24.0802C51.7465 23.1052 52.6333 22.3535 53.6868 22.3535C54.6848 22.3535 55.5433 23.0223 55.8204 23.9408L51.5251 24.0802Z" fill="white"/>
<path id="Vector_8" d="M91.087 25.6438C89.5844 24.4103 87.4367 24.5682 85.6491 23.9435C85.3279 23.8668 85.0985 23.7309 84.9723 23.5774C84.7306 23.2835 84.8753 22.9244 85.5353 22.7815C87.2709 22.6844 89.347 23.2306 91.0385 23.6744C91.1276 23.6974 91.2167 23.6418 91.2353 23.5518L92.2367 18.8188L92.3109 18.4668C92.3267 18.39 92.2861 18.3124 92.2129 18.2832C88.7814 16.9147 83.4688 16.8291 81.1773 17.9691C78.8859 19.1091 78.4182 20.7397 78.5214 22.5679C78.577 23.5421 78.9423 24.4835 79.6685 25.1903C80.8703 26.2826 82.68 26.2897 84.1667 26.5782C85.0085 26.6382 85.3438 27.1747 85.0976 27.5488C84.9741 27.7368 84.7076 27.8841 84.2806 27.9097C82.5203 28.0456 80.6859 27.4518 79.0367 26.8729C78.9379 26.8385 78.8338 26.9056 78.8241 27.0097L78.3706 31.9721C78.3635 32.0479 78.4112 32.1185 78.4844 32.1406C78.5867 32.1715 78.7156 32.2094 78.7244 32.2129C82.3244 33.3124 86.5429 33.9971 90.0494 32.2712C91.3094 31.6509 92.1962 30.4324 92.3373 29.0356C92.3444 28.9668 92.3497 28.8979 92.3541 28.8291C92.4247 27.6124 92.0294 26.3709 91.0853 25.6447L91.087 25.6438Z" fill="white"/>
<path id="Vector_9" d="M23.2269 20.4812C23.2825 20.5138 23.3549 20.4962 23.3875 20.4397L27.2681 13.6853C27.2972 13.6341 27.2831 13.5679 27.2355 13.5335C26.0487 12.69 24.704 12.1041 23.2931 11.7644C22.8819 11.6647 22.4558 11.6691 22.0358 11.7265C22.0049 11.7309 21.9731 11.7344 21.9414 11.7362C21.3422 11.7794 20.7272 11.8562 20.1114 11.9638C19.5255 12.0662 18.9378 12.2003 18.3643 12.36C17.6319 12.5647 16.9314 12.8047 16.2819 13.0738C15.9952 13.1929 15.7093 13.32 15.434 13.4506C15.1561 13.5829 14.8772 13.7232 14.6064 13.8697C13.9869 14.2023 13.3587 14.5932 12.7393 15.0309C12.2522 15.375 11.7784 15.7456 11.3311 16.1329C10.8617 16.5397 10.4152 16.9676 10.0031 17.4044L9.97048 17.4388C9.69871 17.7265 9.49577 18.0706 9.37136 18.4465C8.94871 19.7179 8.74048 21.0803 8.74048 22.44C8.74048 32.295 18.5858 35.3223 26.6346 32.0576C26.6946 32.0329 26.7228 31.9641 26.6972 31.905L23.6699 24.8938C23.6452 24.8365 23.5781 24.81 23.5199 24.8329C14.5499 28.3632 15.6846 16.057 23.2278 20.4803L23.2269 20.4812Z" fill="white"/>
<path id="Vector_10" d="M21.9697 2.80765C21.9547 2.52618 21.7227 2.30647 21.4412 2.30824C21.4306 2.30824 21.4191 2.30824 21.4086 2.30912C20.5544 2.36559 19.6941 2.46265 18.8515 2.59765C18.7121 2.62059 18.5894 2.69559 18.5074 2.81118C18.4244 2.92765 18.3918 3.06883 18.4165 3.20824L18.7686 5.20677C18.0565 5.33559 17.3436 5.49794 16.6447 5.68853L16.0959 3.73589C16.0315 3.50736 15.8215 3.34941 15.585 3.3503C15.5356 3.3503 15.4862 3.35736 15.4386 3.37147C14.6144 3.61412 13.793 3.89736 12.998 4.21412C12.8665 4.26618 12.7641 4.36677 12.7086 4.49736C12.653 4.62883 12.653 4.77353 12.7077 4.905L13.4903 6.77824C13.1418 6.92559 12.795 7.08088 12.458 7.24059C12.1191 7.40118 11.7794 7.57236 11.4468 7.74794L10.4762 5.96471C10.3827 5.79353 10.2036 5.68765 10.0068 5.68853C9.91856 5.68853 9.8312 5.71147 9.75355 5.75471C9.00708 6.1703 8.26855 6.62736 7.56003 7.11265C7.44355 7.19206 7.36591 7.31294 7.3412 7.45236C7.3165 7.59265 7.34826 7.73471 7.4312 7.8503L8.61179 9.50294C8.02326 9.92294 7.44885 10.3729 6.90002 10.8432L5.56061 9.31324C5.45914 9.19765 5.31267 9.13147 5.15826 9.13236C5.02944 9.13236 4.90591 9.18 4.81061 9.26559C4.17444 9.83206 3.55767 10.4365 2.97708 11.0621C2.88091 11.1653 2.8315 11.3003 2.83855 11.4415C2.84473 11.5835 2.90738 11.715 3.01326 11.8094L8.59238 16.8071C8.68944 16.8944 8.81473 16.9421 8.94532 16.9412C9.09003 16.9412 9.23032 16.8794 9.33003 16.7735C9.76326 16.3129 10.2336 15.8629 10.7259 15.4368C11.1962 15.0291 11.6938 14.64 12.2065 14.2782C12.8568 13.8194 13.5168 13.4091 14.1688 13.0579C14.4556 12.9035 14.7477 12.7562 15.038 12.6177C15.3291 12.4791 15.6283 12.3468 15.9283 12.2215C16.6121 11.9382 17.348 11.685 18.1156 11.4706C18.7191 11.3021 19.3377 11.1618 19.9518 11.0541C20.5968 10.9412 21.2436 10.8609 21.8736 10.815C22.1638 10.7938 22.3791 10.5529 22.3641 10.2662L21.9697 2.80677V2.80765Z" fill="#FFCD00"/>
<path id="Vector_11" d="M120.907 17.3541C121.098 16.9455 121.203 16.5573 121.236 16.1929C121.522 13.0341 116.36 11.7105 114.913 14.8791C114.679 15.457 114.603 15.9829 114.644 16.4523C114.891 19.2061 119.296 19.9694 120.907 17.355V17.3541Z" fill="white"/>
</g>
</svg>
